<?xml version="1.0" encoding="UTF-8" standalone="no"?>
<!-- Generator: Adobe Illustrator 16.0.0, SVG Export Plug-In . SVG Version: 6.00 Build 0)  -->

<svg
   xmlns:dc="http://purl.org/dc/elements/1.1/"
   xmlns:cc="http://creativecommons.org/ns#"
   xmlns:rdf="http://www.w3.org/1999/02/22-rdf-syntax-ns#"
   xmlns:svg="http://www.w3.org/2000/svg"
   xmlns="http://www.w3.org/2000/svg"
   xmlns:sodipodi="http://sodipodi.sourceforge.net/DTD/sodipodi-0.dtd"
   xmlns:inkscape="http://www.inkscape.org/namespaces/inkscape"
   version="1.1"
   id="Layer_1"
   x="0px"
   y="0px"
   width="425.19763"
   height="107.54012"
   viewBox="0 0 425.19762 107.54012"
   enable-background="new 0 0 841.89 595.276"
   xml:space="preserve"
   inkscape:version="0.48.5 r10040"
   sodipodi:docname="bof.svg"><metadata
     id="metadata11337"><rdf:RDF><cc:Work
         rdf:about=""><dc:format>image/svg+xml</dc:format><dc:type
           rdf:resource="http://purl.org/dc/dcmitype/StillImage" /></cc:Work></rdf:RDF></metadata><defs
     id="defs11335" /><sodipodi:namedview
     pagecolor="#ffffff"
     bordercolor="#666666"
     borderopacity="1"
     objecttolerance="10"
     gridtolerance="10"
     guidetolerance="10"
     inkscape:pageopacity="0"
     inkscape:pageshadow="2"
     inkscape:window-width="1676"
     inkscape:window-height="1007"
     id="namedview11333"
     showgrid="false"
     fit-margin-top="0"
     fit-margin-left="0"
     fit-margin-right="0"
     fit-margin-bottom="0"
     inkscape:zoom="0.39645475"
     inkscape:cx="232.59962"
     inkscape:cy="4.548"
     inkscape:window-x="0"
     inkscape:window-y="20"
     inkscape:window-maximized="0"
     inkscape:current-layer="Layer_1" /><g
     id="g11339"
     transform="translate(-188.34539,-194.64588)"><path
       id="path11213"
       d="m 430.132,218.762 v -5.68 h -17.985 v 42.125 h 6.034 V 237.22 h 10.413 v -5.679 h -10.413 v -12.779 h 11.951 z m -29.345,26.505 c 0,1.459 -0.404,2.536 -1.213,3.225 -0.808,0.69 -1.765,1.034 -2.868,1.034 -1.105,0 -2.061,-0.344 -2.871,-1.034 -0.808,-0.689 -1.212,-1.766 -1.212,-3.225 v -22.246 c 0,-1.459 0.404,-2.533 1.212,-3.224 0.81,-0.69 1.766,-1.035 2.871,-1.035 1.103,0 2.06,0.345 2.868,1.035 0.809,0.691 1.213,1.765 1.213,3.224 v 22.246 z m 2.811,-29.966 c -0.968,-0.848 -2.052,-1.489 -3.253,-1.922 -1.204,-0.434 -2.417,-0.652 -3.639,-0.652 -1.223,0 -2.436,0.218 -3.638,0.652 -1.205,0.433 -2.289,1.074 -3.255,1.922 -0.967,0.848 -1.745,1.923 -2.337,3.225 -0.592,1.3 -0.888,2.8 -0.888,4.495 v 22.246 c 0,1.737 0.296,3.245 0.888,4.526 0.592,1.281 1.37,2.347 2.337,3.195 0.966,0.848 2.05,1.488 3.255,1.922 1.202,0.434 2.415,0.65 3.638,0.65 1.222,0 2.435,-0.216 3.639,-0.65 1.201,-0.434 2.285,-1.074 3.253,-1.922 0.966,-0.848 1.745,-1.914 2.336,-3.195 0.593,-1.281 0.888,-2.789 0.888,-4.526 v -22.246 c 0,-1.695 -0.295,-3.195 -0.888,-4.495 -0.591,-1.302 -1.371,-2.377 -2.336,-3.225 m -34.905,0.444 c -0.888,-0.907 -1.954,-1.637 -3.196,-2.19 -1.242,-0.551 -2.613,-0.828 -4.111,-0.828 -1.736,0 -3.255,0.306 -4.557,0.917 -1.301,0.613 -2.376,1.43 -3.224,2.455 -0.848,1.027 -1.489,2.248 -1.922,3.668 -0.435,1.42 -0.652,2.92 -0.652,4.496 0,2.645 0.445,4.844 1.331,6.598 0.888,1.754 2.633,3.164 5.237,4.231 l 4.319,1.773 c 0.749,0.316 1.351,0.613 1.805,0.888 0.452,0.277 0.807,0.632 1.064,1.065 0.256,0.434 0.423,1.006 0.503,1.716 0.078,0.71 0.118,1.618 0.118,2.722 0,0.946 -0.04,1.814 -0.118,2.602 -0.08,0.79 -0.265,1.45 -0.562,1.983 -0.295,0.533 -0.73,0.946 -1.301,1.243 -0.572,0.295 -1.371,0.442 -2.397,0.442 -1.538,0 -2.632,-0.442 -3.283,-1.33 -0.65,-0.888 -0.976,-1.884 -0.976,-2.989 v -1.893 h -6.036 v 2.248 c 0,1.42 0.267,2.742 0.799,3.964 0.534,1.224 1.252,2.278 2.16,3.165 0.907,0.889 1.991,1.59 3.254,2.1 1.262,0.513 2.623,0.769 4.082,0.769 1.932,0 3.57,-0.316 4.912,-0.945 1.34,-0.631 2.415,-1.488 3.223,-2.574 0.809,-1.084 1.391,-2.386 1.746,-3.904 0.355,-1.518 0.532,-3.167 0.532,-4.94 0,-1.539 -0.079,-2.908 -0.237,-4.113 -0.157,-1.203 -0.464,-2.268 -0.917,-3.194 -0.454,-0.927 -1.095,-1.736 -1.923,-2.425 -0.828,-0.692 -1.914,-1.292 -3.254,-1.806 l -4.614,-1.833 c -0.79,-0.316 -1.411,-0.631 -1.864,-0.947 -0.453,-0.315 -0.798,-0.682 -1.035,-1.094 -0.237,-0.416 -0.385,-0.907 -0.444,-1.481 -0.058,-0.57 -0.088,-1.271 -0.088,-2.099 0,-0.711 0.059,-1.391 0.176,-2.041 0.119,-0.652 0.326,-1.223 0.622,-1.716 0.296,-0.493 0.71,-0.896 1.243,-1.212 0.532,-0.316 1.212,-0.474 2.042,-0.474 1.537,0 2.632,0.501 3.283,1.509 0.65,1.005 0.975,2.199 0.975,3.579 v 1.36 h 6.035 v -2.958 c 0,-1.183 -0.237,-2.337 -0.709,-3.46 -0.473,-1.125 -1.154,-2.139 -2.041,-3.047 m -39.431,3.017 h 6.98 v 36.445 h 6.036 v -36.445 h 6.981 v -5.68 h -19.997 v 5.68 z m -8.875,36.445 h 6.035 v -42.125 h -6.035 v 42.125 z m -12.573,-26.359 c -0.69,1.007 -2.041,1.509 -4.053,1.509 h -2.721 v -11.595 h 2.485 c 2.011,0 3.402,0.474 4.17,1.419 0.769,0.948 1.154,2.368 1.154,4.26 0.001,1.934 -0.345,3.403 -1.035,4.407 m 0.918,16.064 c -0.08,0.868 -0.297,1.617 -0.652,2.248 -0.354,0.632 -0.878,1.125 -1.567,1.479 -0.692,0.356 -1.648,0.533 -2.87,0.533 h -2.603 v -13.489 h 2.662 c 1.104,0 1.991,0.139 2.662,0.413 0.67,0.277 1.193,0.681 1.569,1.214 0.374,0.533 0.621,1.193 0.739,1.981 0.118,0.789 0.177,1.717 0.177,2.781 0.001,1.025 -0.038,1.973 -0.117,2.84 m 3.372,-28.575 c -0.868,-0.987 -1.981,-1.776 -3.342,-2.368 -1.361,-0.59 -3.008,-0.887 -4.941,-0.887 h -8.815 v 42.125 h 8.224 c 3.944,0 6.813,-0.987 8.608,-2.959 1.794,-1.973 2.691,-4.812 2.691,-8.52 v -2.366 c 0,-2.208 -0.335,-3.973 -1.004,-5.296 -0.672,-1.32 -1.716,-2.315 -3.136,-2.986 0.67,-0.395 1.262,-0.818 1.774,-1.274 0.513,-0.451 0.948,-0.975 1.302,-1.567 0.355,-0.592 0.621,-1.281 0.799,-2.071 0.178,-0.788 0.265,-1.754 0.265,-2.898 v -1.54 c 0,-1.38 -0.187,-2.71 -0.561,-3.992 -0.376,-1.282 -0.996,-2.415 -1.864,-3.401"
       inkscape:connector-curvature="0"
       style="fill:#272123" /><polygon
       id="polygon11215"
       points="451.074,218.762 451.074,231.541 461.487,231.541 461.487,237.221 451.074,237.221 451.074,255.207 445.041,255.207 445.041,213.082 463.025,213.082 463.025,218.762 "
       style="fill:#272123" /><path
       id="path11217"
       d="m 472.966,231.895 h 3.432 c 1.064,0 1.913,-0.146 2.545,-0.442 0.628,-0.297 1.112,-0.72 1.448,-1.274 0.335,-0.552 0.561,-1.232 0.68,-2.041 0.118,-0.807 0.177,-1.744 0.177,-2.808 0,-1.067 -0.059,-2.002 -0.177,-2.811 -0.119,-0.809 -0.365,-1.499 -0.74,-2.071 -0.375,-0.572 -0.896,-0.997 -1.565,-1.272 -0.674,-0.276 -1.56,-0.414 -2.663,-0.414 h -3.136 v 13.133 z m -6.034,-18.812 h 9.701 c 7.101,0 10.649,4.123 10.649,12.365 0,2.446 -0.383,4.547 -1.154,6.301 -0.767,1.755 -2.12,3.166 -4.052,4.229 l 6.507,19.229 h -6.388 l -5.622,-17.987 h -3.607 v 17.987 h -6.034 v -42.124 z"
       inkscape:connector-curvature="0"
       style="fill:#272123" /><polygon
       id="polygon11219"
       points="498.169,218.762 498.169,231.127 508.582,231.127 508.582,236.807 498.169,236.807 498.169,249.172 510.12,249.172 510.12,255.207 492.136,255.207 492.136,213.082 510.12,213.082 510.12,218.762 "
       style="fill:#272123" /><polygon
       id="polygon11221"
       points="520.058,218.762 520.058,231.127 530.471,231.127 530.471,236.807 520.058,236.807 520.058,249.172 532.009,249.172 532.009,255.207 514.024,255.207 514.024,213.082 532.009,213.082 532.009,218.762 "
       style="fill:#272123" /><path
       id="path11223"
       d="m 541.949,249.526 h 2.78 c 1.696,0 2.9,-0.422 3.611,-1.271 0.709,-0.849 1.062,-2.179 1.062,-3.994 v -20.293 c 0,-1.656 -0.334,-2.937 -1.004,-3.845 -0.673,-0.909 -1.895,-1.361 -3.67,-1.361 h -2.78 v 30.764 z m -6.034,-36.443 h 8.933 c 3.434,0 6.056,0.956 7.872,2.869 1.812,1.915 2.718,4.586 2.718,8.017 v 19.702 c 0,3.945 -0.955,6.851 -2.868,8.726 -1.913,1.873 -4.666,2.811 -8.253,2.811 h -8.401 v -42.125 z"
       inkscape:connector-curvature="0"
       style="fill:#272123" /><path
       id="path11225"
       d="m 566.798,245.268 c 0,1.459 0.403,2.535 1.213,3.225 0.809,0.69 1.767,1.034 2.87,1.034 1.105,0 2.061,-0.344 2.868,-1.034 0.811,-0.69 1.215,-1.766 1.215,-3.225 v -22.246 c 0,-1.459 -0.404,-2.533 -1.215,-3.226 -0.808,-0.688 -1.763,-1.033 -2.868,-1.033 -1.104,0 -2.062,0.345 -2.87,1.033 -0.81,0.693 -1.213,1.767 -1.213,3.226 v 22.246 z m -6.033,-22.247 c 0,-1.695 0.295,-3.195 0.888,-4.496 0.591,-1.301 1.369,-2.376 2.337,-3.225 0.965,-0.847 2.049,-1.488 3.253,-1.923 1.202,-0.433 2.414,-0.65 3.639,-0.65 1.224,0 2.436,0.217 3.64,0.65 1.202,0.435 2.285,1.076 3.254,1.923 0.964,0.849 1.746,1.924 2.337,3.225 0.589,1.301 0.887,2.801 0.887,4.496 v 22.246 c 0,1.735 -0.298,3.245 -0.887,4.525 -0.591,1.282 -1.373,2.348 -2.337,3.196 -0.969,0.846 -2.052,1.488 -3.254,1.922 -1.204,0.433 -2.416,0.65 -3.64,0.65 -1.225,0 -2.437,-0.217 -3.639,-0.65 -1.204,-0.434 -2.288,-1.076 -3.253,-1.922 -0.968,-0.848 -1.746,-1.914 -2.337,-3.196 -0.593,-1.28 -0.888,-2.79 -0.888,-4.525 v -22.246 z"
       inkscape:connector-curvature="0"
       style="fill:#272123" /><polygon
       id="polygon11227"
       points="599.988,235.387 607.681,213.082 613.539,213.082 613.539,255.207 607.502,255.207 607.502,229.588 607.385,229.588 601.409,247.693 598.391,247.693 592.475,229.588 592.356,229.588 592.356,255.207 586.322,255.207 586.322,213.082 592.121,213.082 599.871,235.387 "
       style="fill:#272123" /><polygon
       id="polygon11229"
       points="298.301,268.302 300.501,281.802 300.556,281.802 302.783,268.302 305.717,268.302 301.75,287.644 299.307,287.644 295.368,268.302 "
       style="fill:#59a727" /><polygon
       id="polygon11231"
       points="310.142,270.912 310.142,276.589 314.923,276.589 314.923,279.195 310.142,279.195 310.142,284.873 315.629,284.873 315.629,287.645 307.371,287.645 307.371,268.302 315.629,268.302 315.629,270.912 "
       style="fill:#59a727" /><path
       id="path11233"
       d="m 320.19,276.941 h 1.575 c 1.929,0 2.228,-1.088 2.228,-3.016 0,-1.955 -0.325,-3.013 -2.363,-3.013 h -1.44 v 6.029 z m -2.771,-8.639 h 4.455 c 3.287,0 4.889,1.93 4.889,5.678 0,2.227 -0.625,3.856 -2.39,4.834 l 2.988,8.83 h -2.934 l -2.58,-8.26 h -1.657 v 8.26 h -2.771 v -19.342 z"
       inkscape:connector-curvature="0"
       style="fill:#59a727" /><path
       id="path11235"
       d="m 331.759,285.035 h 1.275 c 1.549,0 2.147,-0.76 2.147,-2.416 v -9.316 c 0,-1.524 -0.516,-2.391 -2.147,-2.391 h -1.275 v 14.123 z m -2.771,-16.732 h 4.101 c 3.124,0 4.862,1.875 4.862,5 v 9.043 c 0,3.585 -1.846,5.298 -5.106,5.298 h -3.857 v -19.341 z"
       inkscape:connector-curvature="0"
       style="fill:#59a727" /><polygon
       id="polygon11237"
       points="343.328,270.912 343.328,276.589 348.109,276.589 348.109,279.195 343.328,279.195 343.328,284.873 348.814,284.873 348.814,287.645 340.557,287.645 340.557,268.302 348.814,268.302 348.814,270.912 "
       style="fill:#59a727" /><path
       id="path11239"
       d="m 353.376,285.035 h 1.276 c 1.548,0 2.146,-0.76 2.146,-2.416 v -9.316 c 0,-1.524 -0.517,-2.391 -2.146,-2.391 h -1.276 v 14.123 z m -2.771,-16.732 h 4.101 c 3.124,0 4.862,1.875 4.862,5 v 9.043 c 0,3.585 -1.846,5.298 -5.106,5.298 h -3.857 v -19.341 z"
       inkscape:connector-curvature="0"
       style="fill:#59a727" /><rect
       id="rect11241"
       height="19.341999"
       width="2.7709999"
       y="268.302"
       x="362.255"
       style="fill:#59a727" /><path
       id="path11243"
       d="m 367.551,272.867 c 0,-3.15 2.391,-4.727 4.645,-4.727 2.254,0 4.643,1.577 4.643,4.727 v 0.977 h -2.769 v -0.977 c 0,-1.332 -0.87,-1.955 -1.874,-1.955 -1.005,0 -1.874,0.623 -1.874,1.955 v 10.213 c 0,1.33 0.869,1.955 1.874,1.955 1.004,0 1.874,-0.625 1.874,-1.955 v -3.641 h -2.2 v -2.445 h 4.969 v 6.086 c 0,3.15 -2.389,4.725 -4.643,4.725 -2.254,0 -4.645,-1.575 -4.645,-4.725 v -10.213 z"
       inkscape:connector-curvature="0"
       style="fill:#59a727" /><polygon
       id="polygon11245"
       points="387.08,268.303 387.08,270.912 383.874,270.912 383.874,287.644 381.103,287.644 381.103,270.912 377.897,270.912 377.897,268.303 "
       style="fill:#59a727" /><path
       id="path11247"
       d="m 396.123,285.035 h 1.273 c 1.549,0 2.147,-0.76 2.147,-2.416 v -9.316 c 0,-1.524 -0.516,-2.391 -2.147,-2.391 h -1.273 v 14.123 z m -2.771,-16.732 h 4.101 c 3.124,0 4.862,1.875 4.862,5 v 9.043 c 0,3.585 -1.848,5.298 -5.107,5.298 h -3.856 v -19.341 z"
       inkscape:connector-curvature="0"
       style="fill:#59a727" /><rect
       id="rect11249"
       height="19.341999"
       width="2.77"
       y="268.302"
       x="405.00101"
       style="fill:#59a727" /><path
       id="path11251"
       d="m 410.294,272.867 c 0,-3.15 2.393,-4.727 4.646,-4.727 2.254,0 4.646,1.577 4.646,4.727 v 0.977 h -2.771 v -0.977 c 0,-1.332 -0.871,-1.955 -1.875,-1.955 -1.004,0 -1.873,0.623 -1.873,1.955 v 10.213 c 0,1.33 0.869,1.955 1.873,1.955 1.004,0 1.875,-0.625 1.875,-1.955 v -3.641 h -2.202 v -2.445 h 4.973 v 6.086 c 0,3.15 -2.392,4.725 -4.646,4.725 -2.253,0 -4.646,-1.575 -4.646,-4.725 v -10.213 z"
       inkscape:connector-curvature="0"
       style="fill:#59a727" /><rect
       id="rect11253"
       height="19.341999"
       width="2.77"
       y="268.302"
       x="422.10999"
       style="fill:#59a727" /><polygon
       id="polygon11255"
       points="435.362,268.303 435.362,270.912 432.156,270.912 432.156,287.644 429.387,287.644 429.387,270.912 426.182,270.912 426.182,268.303 "
       style="fill:#59a727" /><path
       id="path11257"
       d="m 440.82,273.873 h -0.055 l -1.358,7.006 h 2.772 l -1.359,-7.006 z m -1.167,-5.57 h 2.309 l 4.319,19.341 h -2.773 l -0.812,-4.156 h -3.776 l -0.816,4.156 h -2.769 l 4.318,-19.341 z"
       inkscape:connector-curvature="0"
       style="fill:#59a727" /><polygon
       id="polygon11259"
       points="455.896,284.873 455.896,287.645 447.639,287.645 447.639,268.302 450.409,268.302 450.409,284.873 "
       style="fill:#59a727" /><polygon
       id="polygon11261"
       points="460.455,270.912 460.455,276.589 465.234,276.589 465.234,279.195 460.455,279.195 460.455,284.873 465.942,284.873 465.942,287.645 457.686,287.645 457.686,268.302 465.942,268.302 465.942,270.912 "
       style="fill:#59a727" /><path
       id="path11263"
       d="m 475.555,284.873 h 1.192 c 2.229,0 2.393,-1.359 2.393,-3.262 0,-1.927 -0.354,-2.931 -2.363,-2.931 h -1.222 v 6.193 z m 0,-8.639 h 1.25 c 1.846,0 2.335,-0.949 2.335,-2.716 0,-1.711 -0.625,-2.606 -2.444,-2.606 h -1.141 v 5.322 z m -2.771,-7.931 h 4.045 c 3.587,0 4.919,2.363 4.919,4.89 v 0.705 c 0,2.065 -0.682,2.827 -1.902,3.586 1.304,0.625 1.902,1.793 1.902,3.805 v 1.086 c 0,3.367 -1.602,5.269 -5.189,5.269 h -3.774 v -19.341 z"
       inkscape:connector-curvature="0"
       style="fill:#59a727" /><path
       id="path11265"
       d="m 493.318,283.297 c 0,2.525 -2.011,4.508 -4.483,4.508 -2.471,0 -4.48,-1.983 -4.48,-4.508 v -14.994 h 2.77 v 14.724 c 0,1.356 0.732,2.008 1.711,2.008 0.978,0 1.71,-0.652 1.71,-2.008 v -14.724 h 2.773 v 14.994 z"
       inkscape:connector-curvature="0"
       style="fill:#59a727" /><path
       id="path11267"
       d="m 498.691,276.941 h 1.577 c 1.928,0 2.225,-1.088 2.225,-3.016 0,-1.955 -0.325,-3.013 -2.363,-3.013 h -1.438 v 6.029 z m -2.77,-8.639 h 4.455 c 3.288,0 4.89,1.93 4.89,5.678 0,2.227 -0.625,3.856 -2.39,4.834 l 2.987,8.83 h -2.936 l -2.581,-8.26 h -1.655 v 8.26 h -2.771 v -19.342 z"
       inkscape:connector-curvature="0"
       style="fill:#59a727" /><path
       id="path11269"
       d="m 507.327,272.867 c 0,-3.15 2.392,-4.727 4.646,-4.727 2.253,0 4.646,1.577 4.646,4.727 v 0.977 h -2.771 v -0.977 c 0,-1.332 -0.871,-1.955 -1.875,-1.955 -1.004,0 -1.873,0.623 -1.873,1.955 v 10.213 c 0,1.33 0.869,1.955 1.873,1.955 1.004,0 1.875,-0.625 1.875,-1.955 v -3.641 h -2.202 v -2.445 h 4.974 v 6.086 c 0,3.15 -2.394,4.725 -4.646,4.725 -2.254,0 -4.646,-1.575 -4.646,-4.725 v -10.213 z"
       inkscape:connector-curvature="0"
       style="fill:#59a727" /><polygon
       id="polygon11271"
       points="521.83,270.912 521.83,276.589 526.61,276.589 526.61,279.195 521.83,279.195 521.83,284.873 527.318,284.873 527.318,287.645 519.062,287.645 519.062,268.302 527.318,268.302 527.318,270.912 "
       style="fill:#59a727" /><path
       id="path11273"
       d="m 531.879,276.941 h 1.574 c 1.93,0 2.229,-1.088 2.229,-3.016 0,-1.955 -0.325,-3.013 -2.363,-3.013 h -1.439 v 6.029 z m -2.77,-8.639 h 4.452 c 3.287,0 4.89,1.93 4.89,5.678 0,2.227 -0.625,3.856 -2.389,4.834 l 2.988,8.83 h -2.935 l -2.581,-8.26 h -1.656 v 8.26 h -2.77 v -19.342 z"
       inkscape:connector-curvature="0"
       style="fill:#59a727" /><path
       id="path11275"
       d="m 543.447,276.941 h 1.575 c 1.93,0 2.227,-1.088 2.227,-3.016 0,-1.955 -0.325,-3.013 -2.364,-3.013 h -1.438 v 6.029 z m -2.771,-8.639 h 4.456 c 3.286,0 4.889,1.93 4.889,5.678 0,2.227 -0.625,3.856 -2.391,4.834 l 2.987,8.83 h -2.935 l -2.58,-8.26 h -1.655 v 8.26 h -2.771 v -19.342 z"
       inkscape:connector-curvature="0"
       style="fill:#59a727" /><polygon
       id="polygon11277"
       points="555.017,270.912 555.017,276.589 559.797,276.589 559.797,279.195 555.017,279.195 555.017,284.873 560.503,284.873 560.503,287.645 552.246,287.645 552.246,268.302 560.503,268.302 560.503,270.912 "
       style="fill:#59a727" /><path
       id="path11279"
       d="m 571.095,283.324 c 0,2.389 -1.929,4.48 -4.401,4.48 -2.118,0 -4.562,-1.031 -4.562,-4.56 v -10.649 c 0,-2.527 1.819,-4.455 4.509,-4.455 2.553,0 4.455,1.928 4.455,4.618 v 1.086 h -2.771 v -0.924 c 0,-1.084 -0.651,-2.008 -1.712,-2.008 -1.385,0 -1.71,0.949 -1.71,2.254 v 9.887 c 0,1.113 0.435,1.982 1.684,1.982 0.761,0 1.738,-0.434 1.738,-1.955 v -0.949 h 2.771 v 1.193 z"
       inkscape:connector-curvature="0"
       style="fill:#59a727" /><polygon
       id="polygon11281"
       points="579.54,276.589 579.54,268.302 582.312,268.302 582.312,287.645 579.54,287.645 579.54,279.033 576.118,279.033 576.118,287.645 573.348,287.645 573.348,268.302 576.118,268.302 576.118,276.589 "
       style="fill:#59a727" /><polygon
       id="polygon11283"
       points="592.71,268.303 592.71,270.912 589.505,270.912 589.505,287.644 586.734,287.644 586.734,270.912 583.53,270.912 583.53,268.303 "
       style="fill:#59a727" /><polygon
       id="polygon11285"
       points="596.702,270.912 596.702,276.589 601.482,276.589 601.482,279.195 596.702,279.195 596.702,284.873 602.188,284.873 602.188,287.645 593.932,287.645 593.932,268.302 602.188,268.302 602.188,270.912 "
       style="fill:#59a727" /><polygon
       id="polygon11287"
       points="610.769,279.955 610.769,268.302 613.543,268.302 613.543,287.645 610.935,287.645 606.696,276.016 606.644,276.016 606.644,287.645 603.873,287.645 603.873,268.302 606.533,268.302 610.716,279.955 "
       style="fill:#59a727" /><path
       id="path11289"
       d="m 236.902,302.183 h -0.369 c -0.181,0 -0.344,-0.022 -0.514,-0.069 -0.002,-0.002 -0.006,-0.002 -0.01,-0.002 -0.07,-0.015 -0.24,-0.037 -0.453,-0.091 l -0.056,-0.014 c -0.248,-0.074 -0.563,-0.127 -1.053,-0.263 l -0.219,-0.079 c -0.424,-0.179 -0.909,-0.42 -1.398,-0.771 -0.292,-0.219 -0.841,-0.534 -1.394,-1.153 -0.763,-0.828 -1.405,-1.774 -1.837,-2.848 -0.335,-0.863 -0.546,-1.852 -0.543,-2.928 v -7.631 c 0,-1.019 0.825,-1.843 1.842,-1.843 1.018,0 1.844,0.824 1.844,1.843 v 7.631 c 0.002,0.615 0.106,1.106 0.289,1.582 0.209,0.532 0.618,1.162 1.118,1.699 l 0.045,0.053 c 0.065,0.09 0.338,0.293 0.778,0.596 0.218,0.152 0.357,0.228 0.599,0.336 0.226,0.058 0.511,0.111 0.917,0.224 0.038,0.004 0.117,0.012 0.26,0.041 h 0.154 2.107 c 1.368,0 3.034,0 5.007,-0.048 l 0.049,-0.004 h 0.476 c 4.59,-0.311 8.582,-1.797 12.122,-4.602 l 0.055,-0.041 c 0.651,-0.474 1.383,-1.146 2.151,-1.867 4.374,-4.447 6.506,-9.566 6.523,-15.816 v -51.295 c -0.019,-6.25 -2.145,-11.312 -6.51,-15.753 -4.505,-4.429 -9.624,-6.558 -15.818,-6.577 h -24.172 c -6.197,0.018 -11.368,2.154 -15.761,6.571 -4.424,4.454 -6.549,9.509 -6.569,15.759 v 51.295 c 10e-4,2.863 0.44,5.425 1.313,7.853 1.125,2.912 2.806,5.555 5.271,7.971 2.248,2.297 4.815,3.988 7.543,5.039 1.192,0.447 2.461,0.838 3.746,1.074 l 0.043,0.008 c 0.832,0.178 1.849,0.279 2.922,0.385 0.566,0.007 1.059,0.05 1.387,0.048 1.015,0 1.842,0.827 1.842,1.846 0,1.019 -0.827,1.844 -1.842,1.844 -0.605,-0.006 -1.131,-0.057 -1.475,-0.055 l -0.176,-0.008 c -1.093,-0.105 -2.244,-0.209 -3.376,-0.445 -1.557,-0.289 -3.027,-0.742 -4.379,-1.248 -3.258,-1.26 -6.272,-3.256 -8.842,-5.881 -2.821,-2.761 -4.821,-5.902 -6.121,-9.293 l -0.012,-0.037 c -1.024,-2.84 -1.531,-5.859 -1.531,-9.101 v -51.295 c -0.02,-7.127 2.596,-13.342 7.642,-18.359 4.99,-5.07 11.299,-7.676 18.375,-7.656 l 24.172,-0.001 c 7.078,-0.019 13.332,2.593 18.426,7.657 4.996,5.025 7.609,11.232 7.59,18.359 v 51.295 c 0.017,7.125 -2.59,13.378 -7.59,18.41 l -0.053,0.051 c -0.787,0.736 -1.609,1.509 -2.518,2.179 -4.124,3.272 -8.945,5.039 -14.211,5.369 l -0.118,0.004 h -0.477 c -2.029,0.055 -3.734,0.053 -5.104,0.055 -1.371,-0.003 -2.054,-0.003 -2.107,-0.003"
       inkscape:connector-curvature="0"
       style="fill:#59a727" /><path
       id="path11291"
       d="m 246.46,279.479 -0.113,0.117 c -0.297,0.336 -0.664,0.668 -1.052,0.969 -2.095,1.637 -4.399,2.441 -7.182,2.449 h -5.267 v -22.961 h 17.116 v 11.061 c -0.023,3.379 -1.136,6.012 -3.502,8.365 m -22.981,3.532 c -0.039,-0.004 -0.068,-0.004 -0.082,-0.006 h -0.005 l -0.265,-0.037 c -0.678,-0.049 -1.167,-0.099 -1.555,-0.201 l -0.11,-0.023 c -0.691,-0.137 -1.334,-0.313 -1.955,-0.561 -1.449,-0.572 -2.782,-1.432 -3.967,-2.654 l -0.047,-0.051 c -2.351,-2.34 -3.426,-4.961 -3.449,-8.365 v -11.061 h 17.115 v 22.963 h -5.266 c -0.183,0.001 -0.328,-10e-4 -0.414,-0.004 m -7.997,-61.594 c 0.01,-0.008 0.019,-0.018 0.029,-0.027 v -0.002 c 2.342,-2.312 4.978,-3.39 8.382,-3.413 h 14.22 c 3.339,0.024 5.927,1.09 8.346,3.429 2.38,2.465 3.477,5.047 3.503,8.42 v 26.543 h -37.918 v -26.543 c 0.029,-3.379 1.072,-5.938 3.438,-8.407 m 34.329,-3.362 c -3.194,-3.17 -7.242,-4.843 -11.697,-4.82 l -14.22,0.003 c -4.496,-0.023 -8.6,1.635 -11.734,4.801 -0.017,0.016 -0.033,0.034 -0.049,0.051 -3.163,3.2 -4.832,7.252 -4.804,11.735 l -0.002,28.388 0.002,12.901 c -0.026,4.494 1.637,8.609 4.863,11.744 1.649,1.701 3.567,2.935 5.59,3.73 0.931,0.373 1.853,0.62 2.73,0.795 0.809,0.194 1.531,0.254 2.18,0.305 0.52,0.08 0.893,0.061 1.224,0.066 h 14.273 c 3.729,0 7.196,-1.197 10.05,-3.457 0.528,-0.412 1.086,-0.902 1.613,-1.484 3.182,-3.117 4.896,-7.203 4.873,-11.699 v -41.289 c 0.025,-4.526 -1.723,-8.577 -4.892,-11.77"
       inkscape:connector-curvature="0"
       style="fill:#272123" /><path
       id="path11293"
       d="m 230.793,203.389 v -5.163 c 0,-0.872 0.706,-1.578 1.579,-1.578 0.873,0 1.58,0.706 1.58,1.578 v 5.163 c 0,0.873 -0.707,1.581 -1.58,1.581 -0.873,0 -1.579,-0.708 -1.579,-1.581"
       inkscape:connector-curvature="0"
       style="fill:#59a727" /><path
       id="path11295"
       d="m 227.843,203.389 v -5.163 c 0,-0.872 0.707,-1.578 1.58,-1.578 0.872,0 1.581,0.706 1.581,1.578 v 5.163 c 0,0.873 -0.709,1.581 -1.581,1.581 -0.873,0 -1.58,-0.708 -1.58,-1.581"
       inkscape:connector-curvature="0"
       style="fill:#59a727" /><path
       id="path11297"
       d="m 234.874,205.982 -1.265,-7.111 c -0.153,-0.857 0.42,-1.678 1.278,-1.83 0.859,-0.154 1.681,0.42 1.833,1.278 l 1.263,7.11 c 0.154,0.859 -0.419,1.679 -1.28,1.832 -0.094,0.016 -0.185,0.024 -0.277,0.024 -0.751,0 -1.417,-0.538 -1.552,-1.303"
       inkscape:connector-curvature="0"
       style="fill:#59a727" /><path
       id="path11299"
       d="m 225.128,203.549 -1.212,-7.058 c -0.147,-0.857 0.431,-1.675 1.29,-1.822 0.861,-0.148 1.677,0.43 1.824,1.29 l 1.212,7.057 c 0.148,0.86 -0.43,1.677 -1.291,1.824 -0.09,0.015 -0.18,0.023 -0.268,0.023 -0.755,0 -1.424,-0.544 -1.555,-1.314"
       inkscape:connector-curvature="0"
       style="fill:#59a727" /><path
       id="path11301"
       d="m 264.761,231.985 c -0.873,0 -1.58,-0.709 -1.58,-1.581 0,-0.873 0.707,-1.579 1.58,-1.579 h 5.16 c 0.872,0 1.58,0.706 1.58,1.579 0,0.872 -0.708,1.581 -1.58,1.581 h -5.16 z"
       inkscape:connector-curvature="0"
       style="fill:#59a727" /><path
       id="path11303"
       d="m 264.761,229.088 c -0.873,0 -1.58,-0.707 -1.58,-1.58 0,-0.873 0.707,-1.579 1.58,-1.579 h 5.16 c 0.873,0 1.58,0.706 1.58,1.579 0,0.873 -0.707,1.58 -1.58,1.58 h -5.16 z"
       inkscape:connector-curvature="0"
       style="fill:#59a727" /><path
       id="path11305"
       d="m 260.942,234.738 c -0.155,-0.858 0.417,-1.679 1.274,-1.834 l 7.059,-1.263 c 0.859,-0.155 1.68,0.417 1.834,1.277 0.152,0.857 -0.418,1.679 -1.277,1.831 l -7.057,1.266 c -0.096,0.016 -0.187,0.025 -0.281,0.025 -0.75,0 -1.416,-0.538 -1.552,-1.302"
       inkscape:connector-curvature="0"
       style="fill:#59a727" /><path
       id="path11307"
       d="m 263.257,224.981 c -0.148,-0.859 0.431,-1.676 1.29,-1.821 l 7.11,-1.213 c 0.86,-0.146 1.676,0.431 1.824,1.293 0.147,0.86 -0.433,1.676 -1.292,1.822 l -7.11,1.212 c -0.09,0.016 -0.179,0.022 -0.267,0.022 -0.755,0 -1.425,-0.544 -1.555,-1.315"
       inkscape:connector-curvature="0"
       style="fill:#59a727" /><path
       id="path11309"
       d="m 264.761,276.218 c -0.873,0 -1.58,-0.705 -1.58,-1.578 0,-0.871 0.707,-1.578 1.58,-1.578 h 5.16 c 0.872,0 1.58,0.707 1.58,1.578 0,0.873 -0.708,1.578 -1.58,1.578 h -5.16 z"
       inkscape:connector-curvature="0"
       style="fill:#59a727" /><path
       id="path11311"
       d="m 264.76,273.271 c -0.872,0 -1.579,-0.707 -1.579,-1.58 0,-0.869 0.707,-1.582 1.579,-1.582 h 5.161 c 0.873,0 1.58,0.713 1.58,1.582 0,0.873 -0.707,1.58 -1.58,1.58 h -5.161 z"
       inkscape:connector-curvature="0"
       style="fill:#59a727" /><path
       id="path11313"
       d="m 260.941,278.974 c -0.153,-0.857 0.419,-1.68 1.275,-1.834 l 7.059,-1.264 c 0.859,-0.154 1.68,0.42 1.834,1.278 0.153,0.859 -0.418,1.679 -1.277,1.832 l -7.059,1.267 c -0.094,0.016 -0.187,0.022 -0.279,0.022 -0.75,0 -1.416,-0.535 -1.553,-1.301"
       inkscape:connector-curvature="0"
       style="fill:#59a727" /><path
       id="path11315"
       d="m 263.259,269.23 c -0.155,-0.859 0.418,-1.68 1.277,-1.832 l 7.111,-1.264 c 0.858,-0.15 1.678,0.418 1.832,1.278 0.153,0.859 -0.42,1.677 -1.281,1.834 l -7.108,1.265 c -0.095,0.014 -0.187,0.022 -0.28,0.022 -0.749,0 -1.416,-0.539 -1.551,-1.303"
       inkscape:connector-curvature="0"
       style="fill:#59a727" /><path
       id="path11317"
       d="m 191.927,231.985 c -0.873,0 -1.579,-0.709 -1.579,-1.581 0,-0.873 0.706,-1.579 1.579,-1.579 h 5.162 c 0.872,0 1.58,0.706 1.58,1.579 0,0.872 -0.708,1.581 -1.58,1.581 h -5.162 z"
       inkscape:connector-curvature="0"
       style="fill:#59a727" /><path
       id="path11319"
       d="m 191.927,229.088 c -0.873,0 -1.58,-0.707 -1.58,-1.58 0,-0.873 0.707,-1.579 1.58,-1.579 h 5.162 c 0.872,0 1.58,0.706 1.58,1.579 0,0.873 -0.708,1.58 -1.58,1.58 h -5.162 z"
       inkscape:connector-curvature="0"
       style="fill:#59a727" /><path
       id="path11321"
       d="m 199.074,236.015 -7.057,-1.267 c -0.858,-0.151 -1.429,-0.973 -1.277,-1.831 0.155,-0.859 0.976,-1.431 1.836,-1.276 l 7.055,1.263 c 0.86,0.155 1.43,0.975 1.277,1.834 -0.137,0.763 -0.803,1.301 -1.554,1.301 -0.091,0.001 -0.186,-0.008 -0.28,-0.024"
       inkscape:connector-curvature="0"
       style="fill:#59a727" /><path
       id="path11323"
       d="m 196.715,226.273 -7.056,-1.211 c -0.861,-0.148 -1.437,-0.965 -1.291,-1.824 0.148,-0.861 0.965,-1.438 1.825,-1.29 l 7.058,1.212 c 0.86,0.147 1.436,0.963 1.289,1.824 -0.133,0.769 -0.799,1.312 -1.554,1.312 -0.089,0 -0.179,-0.006 -0.271,-0.023"
       inkscape:connector-curvature="0"
       style="fill:#59a727" /><path
       id="path11325"
       d="m 191.927,276.218 c -0.873,0 -1.58,-0.705 -1.58,-1.578 0,-0.871 0.707,-1.578 1.58,-1.578 h 5.162 c 0.871,0 1.58,0.707 1.58,1.578 0,0.873 -0.709,1.578 -1.58,1.578 h -5.162 z"
       inkscape:connector-curvature="0"
       style="fill:#59a727" /><path
       id="path11327"
       d="m 191.927,273.271 c -0.873,0 -1.579,-0.707 -1.579,-1.58 0,-0.869 0.706,-1.582 1.579,-1.582 h 5.162 c 0.871,0 1.579,0.713 1.579,1.582 0,0.873 -0.708,1.58 -1.579,1.58 h -5.162 z"
       inkscape:connector-curvature="0"
       style="fill:#59a727" /><path
       id="path11329"
       d="m 199.074,280.254 -7.057,-1.268 c -0.859,-0.152 -1.43,-0.972 -1.276,-1.832 0.154,-0.857 0.976,-1.431 1.835,-1.277 l 7.055,1.264 c 0.859,0.154 1.43,0.976 1.277,1.834 -0.135,0.765 -0.802,1.3 -1.553,1.3 -0.092,0 -0.187,-0.005 -0.281,-0.021"
       inkscape:connector-curvature="0"
       style="fill:#59a727" /><path
       id="path11331"
       d="m 196.703,270.507 -7.056,-1.262 c -0.858,-0.156 -1.43,-0.976 -1.274,-1.836 0.152,-0.857 0.975,-1.429 1.832,-1.275 l 7.058,1.262 c 0.858,0.156 1.43,0.978 1.276,1.834 -0.138,0.763 -0.803,1.302 -1.553,1.302 -0.094,0.001 -0.187,-0.007 -0.283,-0.025"
       inkscape:connector-curvature="0"
       style="fill:#59a727" /></g></svg>