<?xml version="1.0" encoding="UTF-8" standalone="no"?>
<!-- Generator: Adobe Illustrator 16.0.0, SVG Export Plug-In . SVG Version: 6.00 Build 0)  -->

<svg
   xmlns:dc="http://purl.org/dc/elements/1.1/"
   xmlns:cc="http://creativecommons.org/ns#"
   xmlns:rdf="http://www.w3.org/1999/02/22-rdf-syntax-ns#"
   xmlns:svg="http://www.w3.org/2000/svg"
   xmlns="http://www.w3.org/2000/svg"
   xmlns:sodipodi="http://sodipodi.sourceforge.net/DTD/sodipodi-0.dtd"
   xmlns:inkscape="http://www.inkscape.org/namespaces/inkscape"
   version="1.1"
   id="Layer_1"
   x="0px"
   y="0px"
   width="280.06226"
   height="331.12973"
   viewBox="0 0 280.06225 331.12972"
   enable-background="new 0 0 481.89 481.89"
   xml:space="preserve"
   inkscape:version="0.48.5 r10040"
   sodipodi:docname="PrivacyCafe.svg"><metadata
     id="metadata3121"><rdf:RDF><cc:Work
         rdf:about=""><dc:format>image/svg+xml</dc:format><dc:type
           rdf:resource="http://purl.org/dc/dcmitype/StillImage" /></cc:Work></rdf:RDF></metadata><defs
     id="defs3119" /><sodipodi:namedview
     pagecolor="#ffffff"
     bordercolor="#666666"
     borderopacity="1"
     objecttolerance="10"
     gridtolerance="10"
     guidetolerance="10"
     inkscape:pageopacity="0"
     inkscape:pageshadow="2"
     inkscape:window-width="836"
     inkscape:window-height="1007"
     id="namedview3117"
     showgrid="false"
     fit-margin-top="0"
     fit-margin-left="0"
     fit-margin-right="0"
     fit-margin-bottom="0"
     inkscape:zoom="0.48973831"
     inkscape:cx="137.85093"
     inkscape:cy="218.42268"
     inkscape:window-x="840"
     inkscape:window-y="20"
     inkscape:window-maximized="0"
     inkscape:current-layer="Layer_1" /><g
     id="g3123"
     transform="translate(-103.09407,-128.23794)"><path
       id="path3105"
       d="m 228.848,204.204 c 10e-4,6.029 -0.005,12.058 0.004,18.087 0.004,3.083 0.22,3.303 3.236,3.309 5.366,0.009 10.732,-0.008 16.099,0.01 2.625,0.009 2.986,0.361 2.992,3.01 0.016,9.076 0.016,18.152 -0.002,27.23 -0.002,2.371 -0.309,2.697 -2.613,2.699 -12.521,0.016 -25.042,-0.016 -37.564,0.035 -1.825,0.006 -2.396,-0.684 -2.386,-2.455 0.06,-9.408 0.058,-18.814 0.007,-28.221 -0.01,-1.684 0.51,-2.444 2.279,-2.327 1.649,0.109 3.312,-0.003 4.968,0.023 1.543,0.024 2.362,-0.634 2.34,-2.239 -0.023,-1.656 -0.009,-3.312 -0.012,-4.968 -0.002,-1.394 -0.723,-2.057 -2.096,-2.06 -2.054,-0.004 -4.108,-0.046 -6.161,-0.006 -1.382,0.027 -2.104,-0.475 -2.08,-1.952 0.043,-2.583 0.041,-5.168 0.002,-7.751 -0.02,-1.294 0.594,-1.753 1.816,-1.736 2.119,0.029 4.239,-0.02 6.359,-0.005 1.49,0.01 2.183,-0.704 2.169,-2.183 -0.018,-2.053 -0.011,-4.107 -0.008,-6.161 0.002,-1.401 -0.712,-2.051 -2.089,-2.051 -2.12,0 -4.24,-0.051 -6.359,-0.007 -1.34,0.027 -1.923,-0.506 -1.895,-1.871 0.053,-2.583 0.035,-5.167 0.016,-7.751 -0.009,-1.24 0.549,-1.808 1.797,-1.805 5.83,0.014 11.659,0.021 17.489,-0.009 1.685,-0.009 1.693,1.08 1.691,2.273 -0.006,6.295 -0.002,12.588 0.001,18.882 z m 0.899,32.832 c -2.717,0 -5.435,0.022 -8.15,-0.008 -1.559,-0.018 -2.336,0.65 -2.31,2.251 0.034,2.053 0.014,4.108 0.021,6.161 0.005,1.289 0.619,1.953 1.945,1.951 5.632,-0.01 11.264,-0.01 16.896,-0.002 1.365,0.002 1.87,-0.734 1.864,-2.002 -0.009,-1.855 0.027,-3.71 0.008,-5.565 -0.027,-2.496 -0.277,-2.757 -2.721,-2.784 -2.517,-0.027 -5.036,-0.006 -7.553,-0.002 z"
       clip-rule="evenodd"
       inkscape:connector-curvature="0"
       style="fill:#0d0207;fill-rule:evenodd" /><path
       id="path3107"
       d="m 151.524,291.917 c 0.515,-6.12 0.852,-11.437 1.442,-16.725 0.516,-4.628 2.933,-7.767 7.829,-8.29 3.797,-0.404 7.619,-0.816 11.429,-0.816 48.827,-0.003 97.655,0.037 146.482,0.141 11.492,0.025 14.063,2.452 15.067,13.822 0.321,3.646 0.227,7.326 0.381,10.988 0.116,2.769 1.261,4.104 4.394,3.952 18.772,-0.915 32.156,7.942 39.987,24.341 7.98,16.713 5.532,32.976 -6.621,47.005 -11.054,12.761 -25.091,20.53 -42.42,19.646 -5.921,-0.302 -11.82,-2.926 -17.525,-5.039 -5.459,-2.021 -7.066,-2.134 -9.441,3.263 -3.264,7.417 -6.092,15.081 -8.349,22.859 -0.951,3.278 -2.053,4.189 -5.261,4.179 -30.663,-0.102 -61.327,-0.071 -91.991,-0.048 -2.242,0.001 -4.294,0.148 -4.823,-2.87 -2.518,-14.368 -9.625,-26.849 -16.483,-39.401 -9.842,-18.015 -18.934,-36.319 -22.002,-56.915 -1.029,-6.901 -1.464,-13.889 -2.095,-20.092 z m 171.416,53.451 c -0.429,13.43 5.43,18.455 13.977,15.557 7.785,-2.64 14.117,-7.557 18.329,-14.663 4.606,-7.771 1.896,-18.445 -5.545,-23.488 -6.903,-4.678 -14.511,-3.903 -18.579,3.276 -4.021,7.096 -6.447,15.097 -8.182,19.318 z"
       clip-rule="evenodd"
       inkscape:connector-curvature="0"
       style="fill-rule:evenodd" /><g
       id="g3109"><path
         id="path3111"
         d="m 249.416,432.48 c -13.111,-7.283 -26.213,-14.58 -39.328,-21.854 -7.112,-3.947 -7.883,-3.75 -11.886,3.563 -5.751,10.51 -11.37,21.092 -17.125,31.603 -3.312,6.046 -4.246,6.314 -10.043,3.1 -19.819,-10.988 -39.627,-21.997 -59.419,-33.032 -5.645,-3.148 -5.94,-4.11 -2.763,-9.769 11.084,-19.741 22.277,-39.425 33.333,-59.187 4.307,-7.701 8.399,-15.523 12.505,-23.332 1.973,-3.751 4.454,-4.31 8.135,-2.219 19.683,11.184 39.431,22.259 59.167,33.353 7.043,3.962 7.054,3.94 3.076,11.127 -2.018,3.645 -4.031,7.29 -6.04,10.941 -1.67,3.038 -1.003,5.438 2.02,7.138 4.213,2.367 8.452,4.688 12.657,7.069 3.518,1.989 5.962,0.914 7.793,-2.476 2.296,-4.25 4.833,-8.378 7.009,-12.688 1.87,-3.703 4.083,-4.152 7.574,-2.017 4.542,2.78 9.27,5.28 14.041,7.647 3.532,1.754 3.87,3.84 1.885,7.073 -2.611,4.257 -4.856,8.737 -7.319,13.087 -1.941,3.426 -1.232,5.978 2.246,7.859 4.25,2.299 8.487,4.627 12.665,7.055 3.609,2.095 6.243,1.408 8.229,-2.301 2.357,-4.408 4.907,-8.712 7.271,-13.116 1.529,-2.849 3.446,-3.853 6.479,-2.125 5.791,3.299 11.608,6.562 17.479,9.715 2.722,1.463 2.778,3.258 1.415,5.698 -7.401,13.236 -14.791,26.478 -22.096,39.768 -2.017,3.676 -4.464,3.096 -7.463,1.415 -13.805,-7.743 -27.658,-15.405 -41.497,-23.095 z m -94.609,-53.387 c -3.233,5.814 -6.404,11.661 -9.719,17.428 -2.056,3.576 -1.568,6.228 2.199,8.227 4.258,2.261 8.469,4.618 12.646,7.025 3.62,2.088 6.265,1.353 8.169,-2.389 2.413,-4.738 4.802,-9.492 7.397,-14.13 3.489,-6.232 7.232,-12.321 10.738,-18.546 3.425,-6.074 3.179,-6.7 -2.644,-10.088 -3.731,-2.173 -7.438,-4.388 -11.11,-6.657 -3.838,-2.372 -6.457,-1.314 -8.499,2.544 -2.954,5.582 -6.109,11.062 -9.177,16.586 z"
         clip-rule="evenodd"
         inkscape:connector-curvature="0"
         style="fill:#41a62a;fill-rule:evenodd" /></g><path
       id="path3113"
       d="m 255.707,149.394 c 0.001,6.029 -0.005,12.058 0.004,18.087 0.004,3.083 0.22,3.303 3.236,3.309 5.366,0.009 10.732,-0.008 16.099,0.01 2.625,0.009 2.986,0.361 2.992,3.01 0.016,9.076 0.016,18.153 -0.001,27.229 -0.003,2.372 -0.309,2.697 -2.613,2.699 -12.521,0.016 -25.043,-0.016 -37.564,0.035 -1.825,0.007 -2.396,-0.683 -2.386,-2.455 0.06,-9.407 0.058,-18.814 0.007,-28.221 -0.01,-1.684 0.51,-2.444 2.279,-2.327 1.649,0.109 3.312,-0.003 4.968,0.023 1.543,0.024 2.362,-0.634 2.34,-2.239 -0.023,-1.656 -0.009,-3.312 -0.012,-4.968 -0.002,-1.394 -0.723,-2.057 -2.096,-2.06 -2.054,-0.004 -4.108,-0.046 -6.161,-0.006 -1.382,0.027 -2.104,-0.475 -2.08,-1.952 0.043,-2.583 0.041,-5.168 0.002,-7.751 -0.02,-1.294 0.594,-1.753 1.816,-1.736 2.119,0.029 4.239,-0.02 6.359,-0.005 1.49,0.01 2.183,-0.704 2.169,-2.183 -0.018,-2.053 -0.011,-4.107 -0.008,-6.161 0.002,-1.401 -0.712,-2.051 -2.089,-2.051 -2.12,0 -4.24,-0.051 -6.359,-0.007 -1.34,0.027 -1.923,-0.506 -1.895,-1.871 0.053,-2.583 0.035,-5.167 0.016,-7.751 -0.009,-1.24 0.549,-1.808 1.797,-1.805 5.83,0.014 11.659,0.021 17.489,-0.009 1.685,-0.009 1.693,1.08 1.691,2.273 -0.007,6.295 -0.003,12.589 0,18.883 z m 0.898,32.831 c -2.717,0 -5.435,0.022 -8.15,-0.008 -1.559,-0.018 -2.336,0.65 -2.31,2.251 0.034,2.053 0.014,4.107 0.021,6.162 0.005,1.289 0.619,1.953 1.945,1.951 5.632,-0.01 11.264,-0.011 16.896,-0.002 1.365,0.002 1.87,-0.735 1.864,-2.002 -0.009,-1.855 0.027,-3.711 0.008,-5.565 -0.027,-2.496 -0.277,-2.757 -2.721,-2.784 -2.516,-0.028 -5.035,-0.007 -7.553,-0.003 z"
       clip-rule="evenodd"
       inkscape:connector-curvature="0"
       style="fill:#0d0207;fill-rule:evenodd" /><path
       id="path3115"
       d="m 243.085,421.062 c 42.978,0.003 85.955,0.022 128.933,-0.027 4.363,-0.005 8.497,0.194 10.224,5.102 1.805,5.127 -0.92,8.792 -4.619,11.634 -9.356,7.187 -20.562,9.971 -31.772,12.435 -31.038,6.822 -62.589,8.681 -94.248,9.079 -32.33,0.406 -64.645,-0.531 -96.524,-6.259 -13.464,-2.418 -26.599,-6.854 -39.708,-10.937 -3.447,-1.073 -6.528,-3.941 -9.256,-6.533 -2.782,-2.644 -3.964,-6.214 -2.162,-10.046 1.72,-3.657 4.91,-4.487 8.701,-4.482 43.476,0.05 86.953,0.032 130.431,0.034 z"
       clip-rule="evenodd"
       inkscape:connector-curvature="0"
       style="fill-rule:evenodd" /></g></svg>